<svg width="86" height="86" xmlns="http://www.w3.org/2000/svg" xmlns:xlink="http://www.w3.org/1999/xlink">
 <metadata id="metadata3061">image/svg+xml</metadata>
 <defs>
  <linearGradient xlink:href="#linearGradient11392" id="linearGradient12648" y2="-12.935846" x2="-30.353461" y1="-12.935846" x1="-30.478461"/>
  <linearGradient xlink:href="#SVGID_1_" id="linearGradient5344" y2="0.198802" x2="1.595259" y1="0.635583" x1="0.166337"/>
  <linearGradient xlink:href="#SVGID_2_" id="linearGradient5346" y2="0.137455" x2="0.7498" y1="3.949709" x1="-2.17416"/>
  <linearGradient xlink:href="#SVGID_3_" id="linearGradient5348" y2="-1.362831" x2="1.253606" y1="1.923116" x1="-0.20619"/>
  <linearGradient xlink:href="#SVGID_4_" id="linearGradient5350" y2="-0.444029" x2="1.466563" y1="1.704973" x1="-0.800527"/>
  <linearGradient xlink:href="#SVGID_5_" id="linearGradient5352" y2="-0.414214" x2="1.649465" y1="0.77305" x1="-0.183209"/>
  <linearGradient xlink:href="#SVGID_6_" id="linearGradient5354" y2="-0.510282" x2="1.108925" y1="1.8768" x1="-0.347455"/>
  <linearGradient xlink:href="#SVGID_7_" id="linearGradient5356" y2="0.170755" x2="0.665773" y1="4.658027" x1="-1.298646"/>
  <linearGradient xlink:href="#SVGID_8_" id="linearGradient5358" y2="-370.472643" x2="28.42378" y1="607.753328" x1="-45.147163"/>
  <linearGradient xlink:href="#SVGID_9_" id="linearGradient5360" y2="-1600.542515" x2="75.290809" y1="3291.035177" x1="-152.778441"/>
  <linearGradient xlink:href="#SVGID_10_" id="linearGradient5362" y2="-Infinity" x2="Infinity" y1="Infinity" x1="-Infinity"/>
  <linearGradient xlink:href="#SVGID_1_" id="linearGradient7396" y2="0.198802" x2="1.595259" y1="0.635583" x1="0.166337"/>
  <linearGradient xlink:href="#SVGID_2_" id="linearGradient7398" y2="0.137455" x2="0.7498" y1="3.949709" x1="-2.17416"/>
  <linearGradient xlink:href="#SVGID_3_" id="linearGradient7400" y2="-1.362831" x2="1.253606" y1="1.923116" x1="-0.20619"/>
  <linearGradient xlink:href="#SVGID_4_" id="linearGradient7402" y2="-0.444029" x2="1.466563" y1="1.704973" x1="-0.800527"/>
  <linearGradient xlink:href="#SVGID_5_" id="linearGradient7404" y2="-0.414214" x2="1.649465" y1="0.77305" x1="-0.183209"/>
  <linearGradient xlink:href="#SVGID_6_" id="linearGradient7406" y2="-0.510282" x2="1.108925" y1="1.8768" x1="-0.347455"/>
  <linearGradient xlink:href="#SVGID_7_" id="linearGradient7408" y2="0.170755" x2="0.665773" y1="4.658027" x1="-1.298646"/>
  <linearGradient xlink:href="#SVGID_8_" id="linearGradient7410" y2="-370.472643" x2="28.42378" y1="607.753328" x1="-45.147163"/>
  <linearGradient xlink:href="#SVGID_9_" id="linearGradient7412" y2="-1600.542515" x2="75.290809" y1="3291.035177" x1="-152.778441"/>
  <linearGradient xlink:href="#SVGID_10_" id="linearGradient7414" y2="-Infinity" x2="Infinity" y1="Infinity" x1="-Infinity"/>
  <linearGradient gradientTransform="matrix(0.4226,-0.9063,0.9063,0.4226,4226.9761,-6584.5938)" gradientUnits="userSpaceOnUse" id="SVGID_1_" y2="-714.90741" x2="-7633.1528" y1="-803.36011" x1="-7708.7969">
   <stop stop-color="#f69923" offset="0" id="stop4704"/>
   <stop stop-color="#f79a23" offset="0.3123" id="stop4706"/>
   <stop stop-color="#e97826" offset="0.8383" id="stop4708"/>
  </linearGradient>
  <linearGradient gradientTransform="matrix(0.4226,-0.9063,0.9063,0.4226,4226.9761,-6584.5938)" gradientUnits="userSpaceOnUse" id="SVGID_2_" y2="-813.12323" x2="-7728.9585" y1="-813.12323" x1="-8268.6387">
   <stop stop-color="#9e2064" offset="0.3233" id="stop4729"/>
   <stop stop-color="#c92037" offset="0.6302" id="stop4731"/>
   <stop stop-color="#cd2335" offset="0.7514" id="stop4733"/>
   <stop stop-color="#e97826" offset="1" id="stop4735"/>
  </linearGradient>
  <linearGradient gradientTransform="matrix(0.4226,-0.9063,0.9063,0.4226,4226.9761,-6584.5938)" gradientUnits="userSpaceOnUse" id="SVGID_3_" y2="-758.99402" x2="-7881.895" y1="-758.99402" x1="-8203.4922">
   <stop stop-color="#282662" offset="0" id="stop4740"/>
   <stop stop-color="#662e8d" offset="0.095484" id="stop4742"/>
   <stop stop-color="#9f2064" offset="0.7882" id="stop4744"/>
   <stop stop-color="#cd2032" offset="0.9487" id="stop4746"/>
  </linearGradient>
  <linearGradient gradientTransform="matrix(0.4226,-0.9063,0.9063,0.4226,4226.9761,-6584.5938)" gradientUnits="userSpaceOnUse" id="SVGID_4_" y2="-818.15222" x2="-7698.647" y1="-818.15222" x1="-8238.3281">
   <stop stop-color="#9e2064" offset="0.3233" id="stop4751"/>
   <stop stop-color="#c92037" offset="0.6302" id="stop4753"/>
   <stop stop-color="#cd2335" offset="0.7514" id="stop4755"/>
   <stop stop-color="#e97826" offset="1" id="stop4757"/>
  </linearGradient>
  <linearGradient gradientTransform="matrix(0.4226,-0.9063,0.9063,0.4226,4226.9761,-6584.5938)" gradientUnits="userSpaceOnUse" id="SVGID_5_" y2="-810.85059" x2="-7915.3501" y1="-810.85059" x1="-8198.9678">
   <stop stop-color="#282662" offset="0" id="stop4762"/>
   <stop stop-color="#662e8d" offset="0.095484" id="stop4764"/>
   <stop stop-color="#9f2064" offset="0.7882" id="stop4766"/>
   <stop stop-color="#cd2032" offset="0.9487" id="stop4768"/>
  </linearGradient>
  <linearGradient gradientTransform="matrix(0.4226,-0.9063,0.9063,0.4226,4226.9761,-6584.5938)" gradientUnits="userSpaceOnUse" id="SVGID_6_" y2="-762.29712" x2="-7698.647" y1="-762.29712" x1="-8238.3281">
   <stop stop-color="#9e2064" offset="0.3233" id="stop4773"/>
   <stop stop-color="#c92037" offset="0.6302" id="stop4775"/>
   <stop stop-color="#cd2335" offset="0.7514" id="stop4777"/>
   <stop stop-color="#e97826" offset="1" id="stop4779"/>
  </linearGradient>
  <linearGradient gradientTransform="matrix(0.4226,-0.9063,0.9063,0.4226,4226.9761,-6584.5938)" gradientUnits="userSpaceOnUse" id="SVGID_7_" y2="-765.07068" x2="-7732.125" y1="-765.07068" x1="-8271.8057">
   <stop stop-color="#9e2064" offset="0.3233" id="stop4784"/>
   <stop stop-color="#c92037" offset="0.6302" id="stop4786"/>
   <stop stop-color="#cd2335" offset="0.7514" id="stop4788"/>
   <stop stop-color="#e97826" offset="1" id="stop4790"/>
  </linearGradient>
  <linearGradient gradientTransform="matrix(0.4226,-0.9063,0.9063,0.4226,4226.9761,-6584.5938)" gradientUnits="userSpaceOnUse" id="SVGID_8_" y2="-745.68481" x2="-7698.647" y1="-745.68481" x1="-8238.3281">
   <stop stop-color="#9e2064" offset="0.3233" id="stop4799"/>
   <stop stop-color="#c92037" offset="0.6302" id="stop4801"/>
   <stop stop-color="#cd2335" offset="0.7514" id="stop4803"/>
   <stop stop-color="#e97826" offset="1" id="stop4805"/>
  </linearGradient>
  <linearGradient gradientTransform="matrix(0.4226,-0.9063,0.9063,0.4226,4226.9761,-6584.5938)" gradientUnits="userSpaceOnUse" id="SVGID_9_" y2="-747.58557" x2="-7698.647" y1="-747.58557" x1="-8238.3281">
   <stop stop-color="#9e2064" offset="0.3233" id="stop4814"/>
   <stop stop-color="#c92037" offset="0.6302" id="stop4816"/>
   <stop stop-color="#cd2335" offset="0.7514" id="stop4818"/>
   <stop stop-color="#e97826" offset="1" id="stop4820"/>
  </linearGradient>
  <linearGradient gradientTransform="matrix(0.4226,-0.9063,0.9063,0.4226,4226.9761,-6584.5938)" gradientUnits="userSpaceOnUse" id="SVGID_10_" y2="-747.9668" x2="-7815.856" y1="-747.9668" x1="-7935.1431">
   <stop stop-color="#9e2064" offset="0.3233" id="stop4829"/>
   <stop stop-color="#c92037" offset="0.6302" id="stop4831"/>
   <stop stop-color="#cd2335" offset="0.7514" id="stop4833"/>
   <stop stop-color="#e97826" offset="1" id="stop4835"/>
  </linearGradient>
 </defs>
 <g>
  <title>background</title>
  <rect fill="none" id="canvas_background" height="88" width="88" y="-1" x="-1"/>
 </g>
 <g>
  <title>Layer 1</title>
  <text font-style="italic" font-weight="bold" font-size="14px" font-family="'Alte Haas Grotesk'" fill="url(#linearGradient12648)" xml:space="preserve" id="text11870" y="196.18768" x="199.61313"/>
  <g id="g8927">
   <g id="g7248" transform="matrix(0.09561334,-0.07017507,0.07017507,0.09561334,132.73733,36.368381) ">
    <path fill="url(#linearGradient7396)" id="path7258" d="m-591.002051,-705.830682c-8.4,5 -22.4,19 -39,39.3l15.3,28.9c10.7,-15.4 21.7,-29.2 32.7,-41c0.8,-0.9 1.3,-1.4 1.3,-1.4c-0.4,0.5 -0.9,0.9 -1.3,1.4c-3.6,3.9 -14.4,16.5 -30.7,41.6c15.7,-0.8 39.8,-4 59.5,-7.4c5.9,-32.8 -5.7,-47.8 -5.7,-47.8c0,0 -14.8,-23.9 -32.1,-13.6z"/>
    <path fill="none" id="path7260" d="m-617.002051,-541.030682c0.1,0 0.2,0 0.3,-0.1l-2.2,0.2c-0.1,0.1 -0.3,0.1 -0.4,0.2c0.8,-0.1 1.6,-0.2 2.3,-0.3z"/>
    <path fill="none" id="path7262" d="m-632.602051,-489.330682c-1.2,0.3 -2.5,0.5 -3.8,0.7c1.3,-0.2 2.6,-0.4 3.8,-0.7z"/>
    <path fill="none" id="path7264" d="m-738.802051,-373.230682c0.2,-0.4 0.3,-0.9 0.5,-1.3c3.4,-8.9 6.7,-17.5 10,-26c3.7,-9.4 7.4,-18.6 11,-27.5c3.8,-9.3 7.6,-18.4 11.3,-27.1c3.9,-9.2 7.7,-18 11.5,-26.5c3.1,-6.9 6.1,-13.6 9.1,-20.1c1,-2.2 2,-4.3 3,-6.4c2,-4.2 3.9,-8.3 5.8,-12.3c1.8,-3.7 3.5,-7.3 5.2,-10.9c0.6,-1.2 1.2,-2.4 1.7,-3.5c0.1,-0.2 0.2,-0.4 0.3,-0.6l-1.9,0.2l-1.5,-2.9c-0.1,0.3 -0.3,0.6 -0.4,0.9c-2.7,5.3 -5.4,10.7 -8,16.2c-1.5,3.1 -3,6.3 -4.6,9.5c-4.2,8.8 -8.3,17.6 -12.3,26.6c-4.1,9 -8.1,18.1 -12,27.1c-3.9,8.9 -7.6,17.8 -11.3,26.7c-3.7,8.9 -7.3,17.7 -10.8,26.5c-3.7,9.2 -7.3,18.3 -10.7,27.3c-0.8,2 -1.6,4.1 -2.3,6.1c-2.8,7.3 -5.5,14.4 -8.1,21.5l2.4,4.7l2.1,-0.2c0.1,-0.2 0.2,-0.4 0.2,-0.6c3.1,-9.5 6.5,-18.6 9.8,-27.4z"/>
    <path fill="none" id="path7266" d="m-637.402051,-488.530682l0,0c0,0 0,0 0,0c0,0 0,0 0,0z"/>
    <path fill="#be202e" id="path7268" d="m-642.502051,-463.230682c-2,0.4 -4,0.7 -6,1c0,0 0,0 0,0c1,-0.1 2.1,-0.3 3.1,-0.5c1,-0.1 2,-0.3 2.9,-0.5z"/>
    <path opacity="0.35" fill="#be202e" id="path7270" d="m-642.502051,-463.230682c-2,0.4 -4,0.7 -6,1c0,0 0,0 0,0c1,-0.1 2.1,-0.3 3.1,-0.5c1,-0.1 2,-0.3 2.9,-0.5z"/>
    <path fill="#be202e" id="path7272" d="m-637.302051,-488.530682c0,0 0,0 0,0c-0.1,0 -0.1,0 0,0c0.3,0 0.6,-0.1 0.9,-0.1c1.3,-0.2 2.6,-0.4 3.8,-0.7c-1.5,0.3 -3.1,0.5 -4.7,0.8l0,0l0,0z"/>
    <path opacity="0.35" fill="#be202e" id="path7274" d="m-637.302051,-488.530682c0,0 0,0 0,0c-0.1,0 -0.1,0 0,0c0.3,0 0.6,-0.1 0.9,-0.1c1.3,-0.2 2.6,-0.4 3.8,-0.7c-1.5,0.3 -3.1,0.5 -4.7,0.8l0,0l0,0z"/>
    <path fill="url(#linearGradient7398)" id="path7286" d="m-659.902051,-563.030682c4.7,-8.7 9.4,-17.2 14.1,-25.5c4.9,-8.6 9.9,-16.9 15,-25c0.3,-0.5 0.6,-1 0.9,-1.4c5,-7.9 10,-15.5 15.1,-22.8l-15.3,-28.8c-1.1,1.4 -2.3,2.8 -3.5,4.3c-4.4,5.5 -9,11.4 -13.7,17.7c-5.3,7.1 -10.7,14.6 -16.3,22.5c-5.1,7.3 -10.3,15 -15.5,22.9c-4.4,6.8 -8.8,13.7 -13.2,20.8c-0.2,0.3 -0.3,0.5 -0.5,0.8l19.9,39.3c4.4,-8.3 8.7,-16.6 13,-24.8z"/>
    <path fill="url(#linearGradient7400)" id="path7298" d="m-750.602051,-341.330682c-2.6,7.2 -5.3,14.6 -7.9,22.2c0,0.1 -0.1,0.2 -0.1,0.3c-0.4,1.1 -0.8,2.1 -1.1,3.2c-1.8,5.1 -3.3,9.7 -6.9,20.1c5.9,2.7 10.6,9.7 15,17.7c-0.5,-8.3 -3.9,-16.1 -10.4,-22.1c28.9,1.3 53.9,-6 66.7,-27.2c1.1,-1.9 2.2,-3.9 3.2,-6c-5.9,7.4 -13.1,10.6 -26.8,9.8c0,0 -0.1,0 -0.1,0c0,0 0.1,0 0.1,0c20.1,-9 30.2,-17.7 39.1,-32c2.1,-3.4 4.2,-7.1 6.3,-11.2c-17.6,18.1 -38,23.2 -59.5,19.3l-16.1,1.8c-0.5,1.4 -1,2.7 -1.5,4.1z"/>
    <path fill="url(#linearGradient7402)" id="path7310" d="m-743.102051,-377.430682c3.5,-9 7.1,-18.1 10.7,-27.3c3.5,-8.8 7.1,-17.6 10.8,-26.5c3.7,-8.9 7.5,-17.8 11.3,-26.7c3.9,-9.1 7.9,-18.1 12,-27.1c4,-8.9 8.2,-17.8 12.3,-26.6c1.5,-3.2 3,-6.3 4.6,-9.5c2.6,-5.4 5.3,-10.8 8,-16.2c0.1,-0.3 0.3,-0.6 0.4,-0.9l-19.7,-39.2c-0.3,0.5 -0.6,1.1 -1,1.6c-4.6,7.6 -9.3,15.3 -13.8,23.2c-4.6,8 -9.1,16.1 -13.5,24.4c-3.7,7 -7.3,14 -10.9,21.1c-0.7,1.4 -1.4,2.9 -2.1,4.3c-4.3,8.9 -8.3,17.6 -11.8,25.9c-4,9.4 -7.5,18.4 -10.6,26.9c-2,5.6 -3.9,11 -5.6,16.2c-1.4,4.4 -2.7,8.9 -4,13.3c-3,10.4 -5.5,20.8 -7.6,31.2l20,39.5c2.6,-7.1 5.4,-14.2 8.1,-21.5c0.8,-2 1.6,-4 2.4,-6.1z"/>
    <path fill="url(#linearGradient7404)" id="path7322" d="m-773.902051,-387.930682c-2.5,12.6 -4.3,25.2 -5.2,37.8c0,0.4 -0.1,0.9 -0.1,1.3c-6.2,-10 -23,-19.8 -22.9,-19.7c12,17.4 21.1,34.6 22.4,51.5c-6.4,1.3 -15.2,-0.6 -25.3,-4.3c10.6,9.7 18.5,12.4 21.6,13.1c-9.7,0.6 -19.8,7.3 -30,15c14.9,-6.1 27,-8.5 35.6,-6.5c-13.7,38.7 -27.4,81.5 -41.1,126.9c4.2,-1.2 6.7,-4.1 8.1,-7.9c2.4,-8.2 18.7,-62.2 44.1,-133.1c0.7,-2 1.5,-4 2.2,-6.1c0.2,-0.6 0.4,-1.1 0.6,-1.7c2.7,-7.4 5.5,-15 8.4,-22.8c0.7,-1.8 1.3,-3.5 2,-5.3c0,0 0,-0.1 0,-0.1l-20,-39.5c-0.2,0.5 -0.3,0.9 -0.4,1.4z"/>
    <path fill="url(#linearGradient7406)" id="path7334" d="m-669.702051,-534.830682c-0.6,1.2 -1.1,2.3 -1.7,3.5c-1.7,3.6 -3.5,7.2 -5.2,10.9c-1.9,4 -3.8,8.1 -5.8,12.3c-1,2.1 -2,4.2 -3,6.4c-3,6.5 -6,13.2 -9.1,20.1c-3.8,8.5 -7.6,17.3 -11.5,26.5c-3.7,8.7 -7.5,17.8 -11.3,27.1c-3.6,8.9 -7.3,18 -11,27.5c-3.3,8.4 -6.6,17.1 -10,26c-0.2,0.4 -0.3,0.9 -0.5,1.3c-3.3,8.8 -6.7,17.9 -10.1,27.2c-0.1,0.2 -0.2,0.4 -0.2,0.6l16.1,-1.8c-0.3,-0.1 -0.6,-0.1 -1,-0.2c19.3,-2.4 44.9,-16.8 61.4,-34.6c7.6,-8.2 14.5,-17.8 20.9,-29.1c4.8,-8.4 9.2,-17.7 13.5,-28.1c3.7,-9 7.3,-18.8 10.7,-29.4c-4.4,2.3 -9.5,4 -15.1,5.2c-1,0.2 -2,0.4 -3,0.6c-1,0.2 -2,0.3 -3.1,0.5l0,0l0,0c0,0 0,0 0,0c18,-6.9 29.3,-20.2 37.5,-36.6c-4.7,3.2 -12.4,7.4 -21.6,9.5c-1.2,0.3 -2.5,0.5 -3.8,0.7c-0.3,0 -0.6,0.1 -1,0.1l0,0l0,0c0,0 0,0 0,0c0,0 0,0 0,0l0,0c6.2,-2.6 11.5,-5.5 16.1,-9c1,-0.7 1.9,-1.5 2.8,-2.3c1.4,-1.2 2.7,-2.5 4,-3.8c0.8,-0.9 1.6,-1.7 2.4,-2.6c1.8,-2.1 3.5,-4.4 5,-6.9c0.5,-0.8 1,-1.5 1.4,-2.3c0.6,-1.2 1.2,-2.3 1.7,-3.4c2.5,-5 4.5,-9.5 6.1,-13.5c0.8,-2 1.5,-3.8 2.1,-5.5c0.2,-0.7 0.5,-1.3 0.7,-2c0.6,-1.9 1.2,-3.6 1.6,-5.1c0.6,-2.2 1,-4 1.2,-5.3l0,0l0,0c-0.6,0.5 -1.3,1 -2.1,1.4c-5.4,3.2 -14.7,6.2 -22.2,7.6l14.8,-1.6l-14.8,1.6c-0.1,0 -0.2,0 -0.3,0.1c-0.7,0.1 -1.5,0.2 -2.3,0.4c0.1,-0.1 0.3,-0.1 0.4,-0.2l-50.6,5.5c0.1,0.4 0,0.6 -0.1,0.7z"/>
    <path fill="url(#linearGradient7408)" id="path7346" d="m-612.702051,-637.030682c-4.5,6.9 -9.4,14.8 -14.7,23.6c-0.3,0.5 -0.6,0.9 -0.8,1.4c-4.6,7.7 -9.4,16.1 -14.5,25.4c-4.4,8 -9,16.5 -13.8,25.8c-4.2,8 -8.4,16.5 -12.9,25.5l50.6,-5.5c14.7,-6.8 21.3,-12.9 27.7,-21.8c1.7,-2.4 3.4,-5 5.1,-7.7c5.2,-8.1 10.3,-17 14.8,-25.9c4.4,-8.6 8.3,-17.1 11.2,-24.7c1.9,-4.9 3.4,-9.4 4.5,-13.4c0.9,-3.5 1.6,-6.8 2.2,-10c-19.6,3.3 -43.7,6.5 -59.4,7.3z"/>
    <path fill="#be202e" id="path7348" d="m-645.402051,-462.630682c-1,0.2 -2,0.3 -3.1,0.5l0,0c1,-0.2 2,-0.4 3.1,-0.5z"/>
    <path opacity="0.35" fill="#be202e" id="path7350" d="m-645.402051,-462.630682c-1,0.2 -2,0.3 -3.1,0.5l0,0c1,-0.2 2,-0.4 3.1,-0.5z"/>
    <path fill="url(#linearGradient7410)" id="path7362" d="m-645.402051,-462.630682c-1,0.2 -2,0.3 -3.1,0.5l0,0c1,-0.2 2,-0.4 3.1,-0.5z"/>
    <path fill="#be202e" id="path7364" d="m-637.402051,-488.530682c0.3,0 0.6,-0.1 1,-0.1c-0.3,0 -0.6,0.1 -1,0.1l0,0z"/>
    <path opacity="0.35" fill="#be202e" id="path7366" d="m-637.402051,-488.530682c0.3,0 0.6,-0.1 1,-0.1c-0.3,0 -0.6,0.1 -1,0.1l0,0z"/>
    <path fill="url(#linearGradient7412)" id="path7378" d="m-637.402051,-488.530682c0.3,0 0.6,-0.1 1,-0.1c-0.3,0 -0.6,0.1 -1,0.1l0,0z"/>
    <path fill="#be202e" id="path7380" d="m-637.302051,-488.530682c0,0 0,0 0,0l0,0l0,0l0,0c0,0 0,0 0,0z"/>
    <path opacity="0.35" fill="#be202e" id="path7382" d="m-637.302051,-488.530682c0,0 0,0 0,0l0,0l0,0l0,0c0,0 0,0 0,0z"/>
    <path fill="url(#linearGradient7414)" id="path7394" d="m-637.302051,-488.530682c0,0 0,0 0,0l0,0l0,0l0,0c0,0 0,0 0,0z"/>
   </g>
   <g id="g4701" transform="matrix(0.13272567,0.01947468,-0.01947468,0.13272567,170.19741,12.570146) ">
    <path fill="url(#linearGradient5344)" id="path4710" d="m-723.397255,96.044358c-8.4,5 -22.4,19 -39,39.3l15.3,28.9c10.7,-15.4 21.7,-29.2 32.7,-41c0.8,-0.9 1.3,-1.4 1.3,-1.4c-0.4,0.5 -0.9,0.9 -1.3,1.4c-3.6,3.9 -14.4,16.5 -30.7,41.6c15.7,-0.8 39.8,-4 59.5,-7.4c5.9,-32.8 -5.7,-47.8 -5.7,-47.8c0,0 -14.8,-23.9 -32.1,-13.6z"/>
    <path fill="none" id="path4712" d="m-749.397255,260.844358c0.1,0 0.2,0 0.3,-0.1l-2.2,0.2c-0.1,0.1 -0.3,0.1 -0.4,0.2c0.8,-0.1 1.6,-0.2 2.3,-0.3z"/>
    <path fill="none" id="path4714" d="m-764.997255,312.544358c-1.2,0.3 -2.5,0.5 -3.8,0.7c1.3,-0.2 2.6,-0.4 3.8,-0.7z"/>
    <path fill="none" id="path4716" d="m-871.197255,428.644358c0.2,-0.4 0.3,-0.9 0.5,-1.3c3.4,-8.9 6.7,-17.5 10,-26c3.7,-9.4 7.4,-18.6 11,-27.5c3.8,-9.3 7.6,-18.4 11.3,-27.1c3.9,-9.2 7.7,-18 11.5,-26.5c3.1,-6.9 6.1,-13.6 9.1,-20.1c1,-2.2 2,-4.3 3,-6.4c2,-4.2 3.9,-8.3 5.8,-12.3c1.8,-3.7 3.5,-7.3 5.2,-10.9c0.6,-1.2 1.2,-2.4 1.7,-3.5c0.1,-0.2 0.2,-0.4 0.3,-0.6l-1.9,0.2l-1.5,-2.9c-0.1,0.3 -0.3,0.6 -0.4,0.9c-2.7,5.3 -5.4,10.7 -8,16.2c-1.5,3.1 -3,6.3 -4.6,9.5c-4.2,8.8 -8.3,17.6 -12.3,26.6c-4.1,9 -8.1,18.1 -12,27.1c-3.9,8.9 -7.6,17.8 -11.3,26.7c-3.7,8.9 -7.3,17.7 -10.8,26.5c-3.7,9.2 -7.3,18.3 -10.7,27.3c-0.8,2 -1.6,4.1 -2.3,6.1c-2.8,7.3 -5.5,14.4 -8.1,21.5l2.4,4.7l2.1,-0.2c0.1,-0.2 0.2,-0.4 0.2,-0.6c3.1,-9.5 6.5,-18.6 9.8,-27.4z"/>
    <path fill="none" id="path4718" d="m-769.797255,313.344358l0,0c0,0 0,0 0,0c0,0 0,0 0,0z"/>
    <path fill="#be202e" id="path4720" d="m-774.897255,338.644358c-2,0.4 -4,0.7 -6,1c0,0 0,0 0,0c1,-0.1 2.1,-0.3 3.1,-0.5c1,-0.1 2,-0.3 2.9,-0.5z"/>
    <path opacity="0.35" fill="#be202e" id="path4722" d="m-774.897255,338.644358c-2,0.4 -4,0.7 -6,1c0,0 0,0 0,0c1,-0.1 2.1,-0.3 3.1,-0.5c1,-0.1 2,-0.3 2.9,-0.5z"/>
    <path fill="#be202e" id="path4724" d="m-769.697255,313.344358c0,0 0,0 0,0c-0.1,0 -0.1,0 0,0c0.3,0 0.6,-0.1 0.9,-0.1c1.3,-0.2 2.6,-0.4 3.8,-0.7c-1.5,0.3 -3.1,0.5 -4.7,0.8l0,0l0,0z"/>
    <path opacity="0.35" fill="#be202e" id="path4726" d="m-769.697255,313.344358c0,0 0,0 0,0c-0.1,0 -0.1,0 0,0c0.3,0 0.6,-0.1 0.9,-0.1c1.3,-0.2 2.6,-0.4 3.8,-0.7c-1.5,0.3 -3.1,0.5 -4.7,0.8l0,0l0,0z"/>
    <path fill="url(#linearGradient5346)" id="path4737" d="m-792.297255,238.844358c4.7,-8.7 9.4,-17.2 14.1,-25.5c4.9,-8.6 9.9,-16.9 15,-25c0.3,-0.5 0.6,-1 0.9,-1.4c5,-7.9 10,-15.5 15.1,-22.8l-15.3,-28.8c-1.1,1.4 -2.3,2.8 -3.5,4.3c-4.4,5.5 -9,11.4 -13.7,17.7c-5.3,7.1 -10.7,14.6 -16.3,22.5c-5.1,7.3 -10.3,15 -15.5,22.9c-4.4,6.8 -8.8,13.7 -13.2,20.8c-0.2,0.3 -0.3,0.5 -0.5,0.8l19.9,39.3c4.4,-8.3 8.7,-16.6 13,-24.8z"/>
    <path fill="url(#linearGradient5348)" id="path4748" d="m-882.997255,460.544358c-2.6,7.2 -5.3,14.6 -7.9,22.2c0,0.1 -0.1,0.2 -0.1,0.3c-0.4,1.1 -0.8,2.1 -1.1,3.2c-1.8,5.1 -3.3,9.7 -6.9,20.1c5.9,2.7 10.6,9.7 15,17.7c-0.5,-8.3 -3.9,-16.1 -10.4,-22.1c28.9,1.3 53.9,-6 66.7,-27.2c1.1,-1.9 2.2,-3.9 3.2,-6c-5.9,7.4 -13.1,10.6 -26.8,9.8c0,0 -0.1,0 -0.1,0c0,0 0.1,0 0.1,0c20.1,-9 30.2,-17.7 39.1,-32c2.1,-3.4 4.2,-7.1 6.3,-11.2c-17.6,18.1 -38,23.2 -59.5,19.3l-16.1,1.8c-0.5,1.4 -1,2.7 -1.5,4.1z"/>
    <path fill="url(#linearGradient5350)" id="path4759" d="m-875.497255,424.444358c3.5,-9 7.1,-18.1 10.7,-27.3c3.5,-8.8 7.1,-17.6 10.8,-26.5c3.7,-8.9 7.5,-17.8 11.3,-26.7c3.9,-9.1 7.9,-18.1 12,-27.1c4,-8.9 8.2,-17.8 12.3,-26.6c1.5,-3.2 3,-6.3 4.6,-9.5c2.6,-5.4 5.3,-10.8 8,-16.2c0.1,-0.3 0.3,-0.6 0.4,-0.9l-19.7,-39.2c-0.3,0.5 -0.6,1.1 -1,1.6c-4.6,7.6 -9.3,15.3 -13.8,23.2c-4.6,8 -9.1,16.1 -13.5,24.4c-3.7,7 -7.3,14 -10.9,21.1c-0.7,1.4 -1.4,2.9 -2.1,4.3c-4.3,8.9 -8.3,17.6 -11.8,25.9c-4,9.4 -7.5,18.4 -10.6,26.9c-2,5.6 -3.9,11 -5.6,16.2c-1.4,4.4 -2.7,8.9 -4,13.3c-3,10.4 -5.5,20.8 -7.6,31.2l20,39.5c2.6,-7.1 5.4,-14.2 8.1,-21.5c0.8,-2 1.6,-4 2.4,-6.1z"/>
    <path fill="url(#linearGradient5352)" id="path4770" d="m-906.297255,413.944358c-2.5,12.6 -4.3,25.2 -5.2,37.8c0,0.4 -0.1,0.9 -0.1,1.3c-6.2,-10 -23,-19.8 -22.9,-19.7c12,17.4 21.1,34.6 22.4,51.5c-6.4,1.3 -15.2,-0.6 -25.3,-4.3c10.6,9.7 18.5,12.4 21.6,13.1c-9.7,0.6 -19.8,7.3 -30,15c14.9,-6.1 27,-8.5 35.6,-6.5c-13.7,38.7 -27.4,81.5 -41.1,126.9c4.2,-1.2 6.7,-4.1 8.1,-7.9c2.4,-8.2 18.7,-62.2 44.1,-133.1c0.7,-2 1.5,-4 2.2,-6.1c0.2,-0.6 0.4,-1.1 0.6,-1.7c2.7,-7.4 5.5,-15 8.4,-22.8c0.7,-1.8 1.3,-3.5 2,-5.3c0,0 0,-0.1 0,-0.1l-20,-39.5c-0.2,0.5 -0.3,0.9 -0.4,1.4z"/>
    <path fill="url(#linearGradient5354)" id="path4781" d="m-802.097255,267.044358c-0.6,1.2 -1.1,2.3 -1.7,3.5c-1.7,3.6 -3.5,7.2 -5.2,10.9c-1.9,4 -3.8,8.1 -5.8,12.3c-1,2.1 -2,4.2 -3,6.4c-3,6.5 -6,13.2 -9.1,20.1c-3.8,8.5 -7.6,17.3 -11.5,26.5c-3.7,8.7 -7.5,17.8 -11.3,27.1c-3.6,8.9 -7.3,18 -11,27.5c-3.3,8.4 -6.6,17.1 -10,26c-0.2,0.4 -0.3,0.9 -0.5,1.3c-3.3,8.8 -6.7,17.9 -10.1,27.2c-0.1,0.2 -0.2,0.4 -0.2,0.6l16.1,-1.8c-0.3,-0.1 -0.6,-0.1 -1,-0.2c19.3,-2.4 44.9,-16.8 61.4,-34.6c7.6,-8.2 14.5,-17.8 20.9,-29.1c4.8,-8.4 9.2,-17.7 13.5,-28.1c3.7,-9 7.3,-18.8 10.7,-29.4c-4.4,2.3 -9.5,4 -15.1,5.2c-1,0.2 -2,0.4 -3,0.6c-1,0.2 -2,0.3 -3.1,0.5l0,0l0,0c0,0 0,0 0,0c18,-6.9 29.3,-20.2 37.5,-36.6c-4.7,3.2 -12.4,7.4 -21.6,9.5c-1.2,0.3 -2.5,0.5 -3.8,0.7c-0.3,0 -0.6,0.1 -1,0.1l0,0l0,0c0,0 0,0 0,0c0,0 0,0 0,0l0,0c6.2,-2.6 11.5,-5.5 16.1,-9c1,-0.7 1.9,-1.5 2.8,-2.3c1.4,-1.2 2.7,-2.5 4,-3.8c0.8,-0.9 1.6,-1.7 2.4,-2.6c1.8,-2.1 3.5,-4.4 5,-6.9c0.5,-0.8 1,-1.5 1.4,-2.3c0.6,-1.2 1.2,-2.3 1.7,-3.4c2.5,-5 4.5,-9.5 6.1,-13.5c0.8,-2 1.5,-3.8 2.1,-5.5c0.2,-0.7 0.5,-1.3 0.7,-2c0.6,-1.9 1.2,-3.6 1.6,-5.1c0.6,-2.2 1,-4 1.2,-5.3l0,0l0,0c-0.6,0.5 -1.3,1 -2.1,1.4c-5.4,3.2 -14.7,6.2 -22.2,7.6l14.8,-1.6l-14.8,1.6c-0.1,0 -0.2,0 -0.3,0.1c-0.7,0.1 -1.5,0.2 -2.3,0.4c0.1,-0.1 0.3,-0.1 0.4,-0.2l-50.6,5.5c0.1,0.4 0,0.6 -0.1,0.7z"/>
    <path fill="url(#linearGradient5356)" id="path4792" d="m-745.097255,164.844358c-4.5,6.9 -9.4,14.8 -14.7,23.6c-0.3,0.5 -0.6,0.9 -0.8,1.4c-4.6,7.7 -9.4,16.1 -14.5,25.4c-4.4,8 -9,16.5 -13.8,25.8c-4.2,8 -8.4,16.5 -12.9,25.5l50.6,-5.5c14.7,-6.8 21.3,-12.9 27.7,-21.8c1.7,-2.4 3.4,-5 5.1,-7.7c5.2,-8.1 10.3,-17 14.8,-25.9c4.4,-8.6 8.3,-17.1 11.2,-24.7c1.9,-4.9 3.4,-9.4 4.5,-13.4c0.9,-3.5 1.6,-6.8 2.2,-10c-19.6,3.3 -43.7,6.5 -59.4,7.3z"/>
    <path fill="#be202e" id="path4794" d="m-777.797255,339.244358c-1,0.2 -2,0.3 -3.1,0.5l0,0c1,-0.2 2,-0.4 3.1,-0.5z"/>
    <path opacity="0.35" fill="#be202e" id="path4796" d="m-777.797255,339.244358c-1,0.2 -2,0.3 -3.1,0.5l0,0c1,-0.2 2,-0.4 3.1,-0.5z"/>
    <path fill="url(#linearGradient5358)" id="path4807" d="m-777.797255,339.244358c-1,0.2 -2,0.3 -3.1,0.5l0,0c1,-0.2 2,-0.4 3.1,-0.5z"/>
    <path fill="#be202e" id="path4809" d="m-769.797255,313.344358c0.3,0 0.6,-0.1 1,-0.1c-0.3,0 -0.6,0.1 -1,0.1l0,0z"/>
    <path opacity="0.35" fill="#be202e" id="path4811" d="m-769.797255,313.344358c0.3,0 0.6,-0.1 1,-0.1c-0.3,0 -0.6,0.1 -1,0.1l0,0z"/>
    <path fill="url(#linearGradient5360)" id="path4822" d="m-769.797255,313.344358c0.3,0 0.6,-0.1 1,-0.1c-0.3,0 -0.6,0.1 -1,0.1l0,0z"/>
    <path fill="#be202e" id="path4824" d="m-769.697255,313.344358c0,0 0,0 0,0l0,0l0,0l0,0c0,0 0,0 0,0z"/>
    <path opacity="0.35" fill="#be202e" id="path4826" d="m-769.697255,313.344358c0,0 0,0 0,0l0,0l0,0l0,0c0,0 0,0 0,0z"/>
    <path fill="url(#linearGradient5362)" id="path4837" d="m-769.697255,313.344358c0,0 0,0 0,0l0,0l0,0l0,0c0,0 0,0 0,0z"/>
   </g>
  </g>
  <g id="g4845"/>
  <g id="g4847"/>
  <g id="g4849"/>
  <g id="g4851"/>
  <g id="g4853"/>
  <g id="g4855"/>
  <rect id="svg_2" height="0.152672" width="0" y="41.847805" x="161.984733" stroke-width="1.5" stroke="#000" fill="#fff"/>
 </g>
</svg>